<?xml version="1.0" standalone="no"?>
<!DOCTYPE svg PUBLIC "-//W3C//DTD SVG 20010904//EN"
 "http://www.w3.org/TR/2001/REC-SVG-20010904/DTD/svg10.dtd">
<svg version="1.0" xmlns="http://www.w3.org/2000/svg"
 width="4160.000000pt" height="4160.000000pt" viewBox="0 0 4160.000000 4160.000000"
 preserveAspectRatio="xMidYMid meet">
<metadata>
Created by potrace 1.11, written by Peter Selinger 2001-2013
</metadata>
<g transform="translate(0.000000,4160.000000) scale(0.100000,-0.100000)"
fill="#000000" stroke="none">
<path d="M21599 41571 c-37 -33 -105 -91 -188 -161 -29 -25 -63 -54 -75 -65
-12 -11 -44 -38 -71 -60 -27 -22 -56 -47 -65 -55 -14 -13 -52 -46 -155 -132
-11 -9 -67 -56 -125 -104 -58 -47 -107 -89 -110 -93 -3 -3 -21 -18 -40 -32
-19 -15 -45 -36 -58 -47 -13 -11 -42 -35 -64 -54 -23 -18 -56 -45 -73 -59 -16
-14 -41 -34 -54 -45 -13 -10 -40 -33 -60 -51 -50 -43 -78 -68 -131 -113 -25
-21 -54 -47 -66 -57 -12 -10 -50 -43 -85 -73 -92 -79 -371 -328 -447 -399
-256 -236 -812 -789 -812 -807 0 -2 -8 -12 -17 -22 -10 -10 -36 -39 -58 -66
-22 -26 -45 -53 -51 -59 -9 -10 -136 -172 -192 -244 -9 -13 -25 -33 -34 -44
-10 -12 -18 -25 -18 -28 0 -3 -10 -18 -22 -32 -13 -14 -27 -32 -33 -41 -5 -9
-50 -77 -100 -150 -49 -73 -95 -142 -102 -153 -7 -11 -48 -79 -93 -152 -44
-73 -80 -135 -80 -138 0 -3 -11 -23 -25 -45 -14 -22 -22 -40 -18 -40 5 0 3 -4
-2 -8 -19 -13 -242 -475 -320 -662 -15 -36 -38 -89 -51 -118 -13 -29 -24 -55
-24 -58 0 -3 -8 -24 -19 -47 -16 -38 -74 -184 -77 -197 0 -3 -6 -18 -13 -35
-7 -16 -20 -50 -28 -75 -9 -25 -20 -56 -26 -70 -5 -14 -11 -31 -13 -38 -1 -8
-6 -21 -10 -30 -4 -9 -8 -19 -9 -22 -1 -3 -29 -90 -64 -195 -34 -104 -63 -197
-64 -205 -2 -8 -5 -19 -8 -25 -4 -5 -10 -28 -14 -50 -4 -22 -10 -44 -13 -50
-7 -11 -7 -13 -17 -59 -3 -16 -8 -33 -11 -38 -3 -4 -7 -17 -9 -29 -2 -11 -18
-75 -35 -142 -18 -67 -33 -129 -35 -137 -2 -8 -19 -87 -38 -175 -20 -88 -38
-176 -41 -195 -3 -19 -8 -46 -11 -60 -3 -14 -7 -38 -10 -55 -3 -16 -8 -43 -12
-60 -3 -16 -7 -41 -8 -55 -2 -14 -6 -41 -10 -60 -8 -42 -14 -82 -20 -134 -6
-48 -14 -104 -20 -136 -3 -14 -7 -52 -10 -85 -3 -33 -8 -80 -11 -105 -25 -193
-34 -435 -21 -545 3 -22 8 -69 11 -105 11 -125 23 -226 30 -260 3 -14 8 -47
11 -75 3 -27 10 -77 15 -110 6 -33 13 -76 15 -95 3 -19 8 -46 11 -60 3 -14 8
-36 10 -50 3 -14 7 -36 10 -50 3 -14 7 -38 10 -54 3 -16 12 -59 20 -95 9 -36
17 -79 20 -94 2 -16 7 -33 10 -38 3 -6 8 -25 11 -42 3 -18 14 -66 25 -107 11
-41 21 -79 23 -85 1 -5 4 -17 7 -25 6 -16 45 -151 61 -215 2 -5 14 -41 27 -80
13 -38 25 -72 25 -75 2 -10 37 -115 45 -135 20 -49 54 -150 51 -154 -1 -2 1
-7 6 -10 4 -3 15 -26 24 -51 27 -72 54 -142 73 -185 10 -22 22 -49 26 -60 54
-134 245 -529 335 -690 94 -169 160 -280 167 -283 4 -2 8 -8 8 -14 0 -6 14
-30 30 -55 17 -24 30 -46 30 -49 0 -3 14 -25 30 -49 17 -24 30 -48 30 -54 0
-6 5 -11 10 -11 6 0 10 -6 10 -13 0 -7 10 -24 23 -38 24 -27 43 -55 54 -79 4
-8 13 -21 20 -28 7 -7 25 -34 40 -60 15 -26 30 -49 33 -52 3 -3 35 -45 70 -95
36 -49 67 -92 70 -95 3 -3 21 -27 40 -55 19 -27 63 -86 98 -130 34 -44 84
-107 110 -140 26 -33 49 -62 52 -65 3 -3 37 -43 75 -90 38 -47 74 -90 80 -96
5 -6 21 -25 35 -43 14 -18 34 -42 45 -55 12 -12 39 -45 60 -72 22 -27 45 -54
50 -60 6 -6 26 -31 45 -54 19 -24 51 -62 70 -84 19 -23 51 -61 70 -85 19 -24
40 -48 45 -55 6 -6 41 -49 79 -96 38 -47 76 -92 83 -100 26 -28 64 -75 106
-130 23 -30 50 -64 61 -75 10 -11 25 -31 34 -45 9 -14 25 -31 34 -38 10 -7 18
-18 18 -23 0 -9 54 -84 71 -99 12 -11 200 -292 206 -308 4 -9 9 -19 13 -22 3
-3 17 -23 30 -45 13 -22 27 -42 30 -45 3 -3 14 -21 23 -40 10 -19 30 -56 45
-81 71 -122 82 -142 82 -154 0 -8 3 -15 8 -17 4 -1 21 -30 37 -63 17 -33 34
-63 38 -66 5 -3 9 -10 9 -15 1 -14 14 -46 54 -131 20 -43 49 -112 66 -153 16
-41 35 -88 42 -105 8 -16 21 -50 29 -75 53 -152 77 -224 97 -295 12 -44 24
-87 27 -95 2 -8 5 -17 5 -20 0 -3 7 -25 14 -50 7 -25 15 -56 18 -70 3 -14 7
-35 10 -47 4 -13 8 -31 10 -40 11 -43 46 -227 56 -289 6 -38 13 -80 15 -94 4
-22 9 -64 20 -175 15 -156 19 -226 19 -395 1 -172 -4 -264 -18 -336 -4 -22
-13 -71 -22 -134 -3 -19 -10 -53 -15 -75 -5 -22 -12 -51 -15 -65 -22 -106 -75
-271 -130 -401 -26 -63 -51 -116 -54 -119 -4 -3 -10 -15 -14 -27 -16 -50 -154
-266 -203 -318 -7 -8 -13 -16 -13 -20 0 -4 -6 -12 -12 -19 -13 -13 -41 -46
-145 -171 -32 -39 -68 -80 -78 -91 -11 -11 -58 -63 -105 -115 -47 -51 -225
-233 -396 -404 -267 -267 -377 -372 -609 -590 -45 -42 -296 -279 -360 -340
-23 -22 -93 -87 -155 -145 -61 -58 -133 -125 -160 -150 -45 -43 -261 -245
-340 -320 -21 -19 -76 -71 -122 -115 -47 -44 -145 -136 -218 -205 -181 -171
-245 -231 -316 -299 -34 -32 -70 -64 -80 -72 -41 -30 -47 -45 -29 -79 16 -30
15 -32 -4 -49 -12 -10 -21 -23 -21 -28 0 -5 50 -56 112 -114 61 -57 128 -120
148 -139 21 -19 97 -91 170 -160 73 -69 150 -141 170 -160 20 -19 92 -87 160
-150 67 -63 143 -135 170 -160 26 -25 107 -101 180 -170 74 -69 150 -141 171
-160 20 -19 94 -89 165 -155 70 -66 142 -133 159 -150 18 -16 79 -73 136 -125
414 -381 757 -721 1081 -1071 18 -19 56 -62 83 -94 28 -32 55 -63 60 -69 6 -6
30 -36 55 -66 25 -30 49 -60 55 -66 25 -29 43 -53 75 -99 18 -28 37 -52 40
-55 26 -19 230 -393 230 -421 0 -5 9 -28 19 -52 11 -23 25 -60 31 -82 7 -22
17 -46 23 -52 5 -7 7 -13 3 -13 -3 0 -1 -12 5 -27 16 -42 67 -247 74 -296 3
-23 8 -49 10 -57 7 -23 16 -81 20 -120 2 -19 7 -64 11 -100 11 -97 6 -385 -10
-525 -3 -26 -10 -93 -22 -210 -1 -16 -3 -30 -4 -30 -1 0 -3 -9 -4 -20 -4 -25
-15 -92 -21 -125 -2 -14 -7 -41 -9 -60 -3 -19 -8 -46 -11 -60 -3 -14 -12 -56
-20 -95 -8 -38 -19 -85 -24 -103 -5 -18 -10 -35 -10 -37 -1 -3 -1 -6 -2 -7 0
-2 -2 -10 -4 -18 -6 -22 -34 -131 -41 -155 -3 -11 -6 -24 -7 -30 -2 -5 -6 -15
-9 -21 -4 -6 -9 -21 -11 -35 -5 -24 -41 -131 -60 -179 -6 -14 -11 -32 -13 -40
-2 -8 -10 -30 -18 -50 -8 -19 -27 -66 -41 -105 -15 -38 -31 -74 -36 -79 -5 -6
-9 -16 -9 -23 0 -7 -34 -83 -75 -168 -41 -86 -75 -160 -75 -164 0 -5 -3 -11
-7 -13 -5 -2 -24 -34 -43 -73 -19 -38 -37 -72 -40 -75 -4 -3 -23 -36 -45 -75
-40 -74 -60 -105 -170 -275 -119 -182 -309 -437 -450 -603 -6 -7 -34 -41 -63
-77 -29 -36 -61 -74 -70 -85 -9 -11 -43 -51 -75 -90 -32 -38 -66 -79 -75 -90
-10 -11 -38 -45 -62 -75 -25 -30 -48 -56 -52 -58 -5 -2 -8 -8 -8 -12 0 -5 -10
-20 -22 -32 -22 -22 -40 -44 -113 -133 -16 -21 -37 -46 -47 -57 -9 -10 -31
-38 -50 -61 -18 -22 -48 -57 -65 -76 -18 -19 -36 -43 -39 -53 -3 -10 -9 -18
-13 -18 -5 0 -37 -37 -72 -82 -34 -46 -69 -90 -76 -98 -12 -13 -60 -75 -150
-196 -119 -159 -283 -399 -283 -413 0 -5 -4 -11 -10 -13 -11 -3 -130 -195
-130 -209 0 -5 -4 -9 -9 -9 -5 0 -22 -25 -37 -55 -16 -30 -31 -55 -34 -55 -3
0 -14 -20 -25 -45 -11 -25 -23 -45 -27 -45 -5 0 -8 -4 -8 -9 0 -8 -91 -174
-120 -221 -6 -8 -15 -26 -20 -40 -6 -14 -17 -36 -25 -50 -59 -98 -276 -570
-276 -600 0 -3 -7 -12 -14 -20 -7 -8 -14 -17 -14 -20 0 -7 -10 -36 -32 -95
-32 -87 -40 -110 -40 -113 1 -1 -5 -15 -13 -30 -12 -24 -133 -376 -142 -412
-2 -12 -41 -147 -59 -210 -6 -20 -74 -290 -80 -315 -2 -11 -7 -33 -11 -50 -3
-16 -8 -39 -9 -50 -2 -11 -4 -20 -5 -20 -1 0 -4 -11 -6 -25 -8 -49 -11 -65
-14 -65 -1 0 -4 -11 -5 -25 -1 -14 -5 -38 -9 -55 -4 -16 -9 -46 -12 -65 -2
-19 -7 -46 -9 -60 -3 -14 -8 -47 -11 -75 -4 -27 -8 -53 -10 -57 -2 -3 -6 -28
-9 -55 -3 -26 -8 -64 -11 -82 -3 -19 -7 -53 -10 -75 -2 -23 -7 -59 -10 -81
-10 -59 -10 -640 -1 -710 4 -33 10 -76 13 -95 7 -59 15 -124 19 -145 1 -11 6
-47 9 -80 4 -33 9 -67 11 -75 2 -8 7 -33 10 -55 3 -23 7 -52 10 -65 5 -25 12
-65 19 -110 5 -31 17 -98 23 -125 2 -11 6 -31 9 -45 2 -14 7 -36 10 -50 3 -14
8 -40 10 -59 3 -19 6 -37 9 -41 2 -4 7 -20 9 -36 3 -16 8 -40 11 -54 3 -14 8
-34 10 -45 6 -23 11 -45 24 -97 5 -21 7 -38 4 -38 -3 0 -1 -6 4 -13 9 -10 24
-71 24 -92 0 -2 6 -23 14 -45 8 -22 12 -40 10 -40 -3 0 0 -12 6 -27 6 -16 12
-35 14 -43 2 -8 22 -78 45 -155 22 -77 43 -147 45 -155 5 -21 108 -323 134
-395 13 -33 24 -64 25 -70 4 -14 16 -45 31 -80 7 -16 16 -41 20 -55 4 -14 15
-43 25 -65 10 -22 36 -85 58 -140 22 -55 49 -118 58 -140 10 -22 18 -42 19
-45 1 -3 14 -32 29 -65 29 -62 48 -106 51 -115 6 -20 42 -86 50 -92 6 -4 6 -8
2 -8 -10 0 257 -526 278 -550 8 -9 15 -19 15 -23 0 -16 277 -440 291 -445 5
-2 9 -8 9 -13 0 -8 34 -57 113 -163 12 -16 58 -75 102 -130 44 -56 83 -105 87
-111 4 -5 20 -24 35 -41 16 -17 53 -60 83 -95 157 -180 441 -464 801 -801 34
-32 184 -167 219 -198 9 -8 51 -46 92 -83 42 -37 87 -77 99 -88 13 -11 35 -30
49 -42 14 -12 55 -47 90 -77 36 -30 77 -66 91 -80 14 -14 33 -29 41 -35 9 -5
47 -37 85 -70 37 -33 92 -80 122 -105 29 -25 63 -53 75 -64 11 -10 41 -35 66
-55 25 -20 47 -39 50 -42 4 -5 233 -200 299 -254 33 -28 251 -213 281 -239 53
-45 246 -203 257 -209 7 -5 31 13 60 45 26 28 59 64 73 79 14 15 54 60 90 100
36 40 83 92 105 115 22 23 63 69 91 101 29 32 65 72 80 88 16 17 63 68 104
114 41 46 89 98 105 116 17 17 59 65 95 105 36 40 79 87 95 104 17 18 68 75
115 126 47 52 103 114 125 138 22 25 51 57 65 72 14 14 59 64 100 110 41 45
86 95 100 110 86 94 201 221 240 264 25 27 56 62 70 77 14 15 54 60 90 99 36
40 81 89 100 109 19 21 64 70 100 110 36 41 81 90 100 111 19 20 60 65 90 100
30 34 75 83 100 109 81 86 109 119 103 125 -4 3 1 6 10 6 9 0 17 3 17 8 1 4
27 36 59 71 l58 64 -35 31 c-20 17 -68 61 -107 98 -85 81 -135 128 -295 278
-354 331 -474 445 -532 501 -32 31 -58 55 -58 54 0 -2 -36 31 -79 73 -44 42
-126 120 -182 172 -320 298 -453 432 -629 631 -36 40 -72 80 -80 89 -8 8 -25
29 -38 45 -13 17 -38 46 -55 65 -18 19 -61 71 -97 115 -35 44 -70 87 -77 95
-39 45 -205 265 -248 330 -16 25 -32 47 -35 50 -9 9 -130 191 -130 196 0 3
-17 31 -38 62 -21 31 -54 85 -73 120 -18 34 -37 62 -41 62 -5 0 -8 5 -8 12 0
6 -31 74 -69 152 -91 187 -131 274 -131 289 0 7 -4 17 -9 23 -16 16 -173 453
-196 544 -2 8 -20 71 -40 140 -36 127 -109 420 -118 475 -3 17 -8 41 -11 55
-3 14 -8 36 -11 50 -3 14 -9 45 -14 70 -5 25 -8 47 -6 50 2 3 6 28 10 55 4 28
8 61 10 75 5 34 23 129 42 220 8 41 17 84 18 95 2 11 4 20 5 20 1 0 3 7 5 15
1 8 11 44 20 80 9 36 18 70 19 75 2 6 12 42 24 80 12 39 21 72 22 75 0 12 100
285 129 355 52 125 97 221 106 227 5 4 7 8 3 8 -12 0 150 309 219 418 18 29
33 55 33 58 0 8 196 301 249 371 25 34 53 72 61 84 8 13 24 32 35 44 11 12 32
39 47 61 16 21 40 53 55 71 16 17 60 73 98 123 78 103 228 295 250 323 8 9 15
19 15 22 0 4 22 33 45 59 6 6 33 40 59 76 27 36 54 70 60 75 6 6 22 26 36 45
13 19 28 40 32 45 5 6 31 39 59 75 27 36 56 73 64 82 8 10 93 122 190 250 96
128 178 238 182 243 5 6 19 27 33 47 14 21 28 38 33 38 4 0 7 5 7 11 0 6 9 23
21 37 11 15 51 72 89 127 38 55 74 105 80 112 5 7 10 14 10 17 0 6 61 98 71
106 4 4 87 135 124 198 6 9 27 43 48 74 20 31 37 62 37 68 0 5 5 10 10 10 6 0
10 5 10 10 0 6 23 47 50 91 28 44 50 82 50 84 0 2 18 33 40 69 22 36 40 70 40
76 0 5 5 10 10 10 6 0 10 9 10 19 0 11 3 21 8 23 7 3 39 61 116 213 23 44 44
82 49 83 4 2 7 10 7 17 0 8 14 37 30 65 17 28 30 55 30 59 0 4 11 30 25 56 14
26 37 73 50 104 13 31 42 96 64 144 23 49 41 91 41 95 1 4 9 25 20 47 11 22
19 44 20 48 0 4 10 29 21 55 12 25 22 51 24 57 1 5 8 24 15 40 7 17 14 32 15
35 1 3 4 12 8 20 5 14 29 88 32 100 1 3 6 16 12 30 27 66 145 438 158 499 2 9
17 72 34 141 31 122 65 280 76 350 3 19 9 44 12 55 3 11 7 36 8 55 1 19 5 51
9 70 4 19 9 51 11 70 2 19 7 53 10 75 4 22 9 60 12 85 8 64 13 1071 6 1084 -4
6 -8 29 -10 51 -4 41 -21 169 -29 215 -6 33 -11 67 -18 114 -3 21 -8 46 -10
55 -3 9 -8 34 -11 56 -7 45 -13 70 -15 70 -1 0 -3 9 -5 20 -6 31 -18 89 -21
100 -2 6 -5 20 -8 31 -9 42 -48 189 -53 204 -3 8 -7 20 -8 26 -6 25 -48 162
-67 214 -11 30 -21 62 -23 70 -2 8 -13 39 -24 68 -10 28 -17 52 -14 52 3 0 1
6 -4 13 -6 6 -23 46 -38 87 -15 41 -32 79 -36 85 -5 5 -9 16 -9 25 0 8 -9 32
-20 53 -11 20 -18 37 -16 37 2 0 -12 33 -31 73 -19 39 -36 77 -37 82 -4 18
-41 90 -49 96 -5 3 -8 10 -8 15 1 13 -11 48 -18 54 -3 3 -28 48 -54 100 -180
360 -422 755 -683 1115 -8 11 -36 50 -62 86 -26 36 -53 72 -60 80 -6 8 -32 41
-57 74 -57 77 -45 61 -160 205 -55 69 -107 132 -115 141 -8 8 -27 31 -42 50
-14 19 -35 43 -45 55 -42 49 -129 148 -148 168 -58 64 -104 122 -104 131 0 8
73 95 129 155 18 19 178 205 206 238 10 13 27 33 37 45 47 55 163 200 223 277
36 47 78 100 92 119 32 40 78 105 130 181 20 30 44 62 53 70 9 8 18 20 20 25
5 12 181 278 189 285 3 3 11 17 19 33 8 15 18 27 23 27 4 0 8 4 8 9 0 5 40 76
88 158 174 292 406 741 428 828 3 14 10 25 15 25 5 0 8 3 7 8 -1 7 6 30 23 67
4 11 24 58 42 105 19 47 38 94 42 105 5 11 9 22 9 25 1 5 51 147 63 180 8 21
14 43 15 58 1 6 6 12 11 12 6 0 8 2 5 5 -3 3 3 34 14 68 11 34 24 76 28 92 5
17 18 64 30 105 11 41 23 86 26 100 3 14 10 43 15 64 6 22 12 49 14 60 1 12 5
28 8 36 3 8 8 29 11 45 2 17 11 66 20 110 25 130 31 168 42 255 6 52 9 72 20
155 20 139 9 1183 -12 1217 -3 4 -7 34 -9 65 -3 32 -7 69 -11 83 -3 14 -7 39
-9 55 -2 17 -5 41 -8 55 -3 14 -8 43 -12 65 -11 60 -12 63 -30 150 -9 44 -23
105 -30 135 -8 30 -16 66 -19 80 -9 44 -66 253 -82 300 -9 25 -18 54 -20 65
-4 21 -80 246 -94 280 -5 11 -12 31 -15 45 -4 14 -13 39 -20 55 -7 17 -21 50
-30 75 -9 25 -22 56 -28 70 -6 14 -11 27 -12 30 -1 3 -7 18 -13 33 -7 16 -12
30 -12 31 0 2 -7 20 -15 40 -8 20 -15 38 -15 41 1 3 -6 18 -14 33 -22 39 -91
192 -107 235 -7 20 -17 37 -21 37 -4 0 -7 3 -6 8 2 6 -156 327 -206 417 -13
22 -37 67 -56 100 -82 150 -273 475 -293 500 -12 15 -97 146 -97 150 0 3 -79
124 -103 157 -27 39 -61 88 -137 198 -43 63 -89 128 -102 144 -13 16 -25 34
-28 41 -3 6 -11 18 -18 26 -7 8 -63 82 -125 164 -110 148 -177 235 -187 245
-3 3 -25 32 -50 65 -25 33 -48 62 -52 63 -5 2 -8 10 -8 18 0 8 -3 14 -7 14 -5
0 -19 16 -32 35 -13 19 -32 44 -42 56 -11 12 -19 25 -19 28 0 3 -14 22 -30 41
-16 19 -30 38 -30 41 0 3 -11 19 -25 35 -14 16 -35 44 -46 62 -11 17 -25 32
-30 32 -6 0 -7 5 -4 10 3 6 3 10 -2 10 -4 1 -24 24 -43 52 -19 28 -43 59 -52
69 -10 11 -18 22 -18 25 0 7 -63 88 -72 92 -5 2 -8 8 -8 14 0 6 -12 25 -27 43
-48 56 -63 75 -63 80 0 3 -17 27 -37 53 -21 27 -49 64 -63 82 -14 18 -45 59
-70 89 -24 31 -48 61 -52 66 -68 88 -89 118 -118 160 -18 28 -36 52 -39 55 -3
3 -10 12 -16 21 -5 9 -32 49 -59 90 -98 148 -115 176 -183 294 -80 138 -198
370 -238 465 -15 36 -35 83 -45 105 -9 22 -34 87 -55 145 -20 58 -41 114 -46
125 -8 19 -50 147 -55 170 -1 6 -14 53 -27 105 -14 52 -28 106 -30 120 -2 14
-6 32 -9 40 -5 13 -19 77 -32 145 -2 11 -9 56 -16 100 -6 44 -14 96 -17 115
-8 47 -8 129 0 160 12 48 17 75 19 103 1 15 6 27 11 27 4 0 6 3 3 8 -2 4 7 52
20 107 13 55 26 111 29 125 3 14 21 84 40 155 20 72 38 137 40 145 8 37 79
258 92 290 8 20 15 42 17 50 3 17 13 43 31 85 8 17 17 44 20 60 4 17 16 48 25
70 32 69 121 280 123 290 1 6 4 12 7 15 3 3 35 66 73 140 76 152 130 252 158
292 11 14 19 29 19 32 0 4 4 12 10 19 24 29 78 117 72 117 -4 0 -2 4 4 8 5 4
26 30 45 57 18 28 37 52 40 55 3 3 14 20 23 38 9 17 21 32 26 32 6 0 10 5 10
11 0 6 6 17 13 24 26 30 37 44 37 50 0 3 8 13 18 23 9 10 24 29 32 42 13 20
42 57 98 125 10 11 35 43 57 70 51 64 61 76 165 196 214 246 397 438 590 619
71 67 276 260 340 320 32 30 105 99 161 152 57 53 125 116 150 140 25 24 98
93 162 153 64 61 146 137 181 170 34 33 118 112 186 175 68 63 148 139 179
169 31 29 70 66 88 81 l32 29 -27 29 c-15 16 -58 64 -97 107 -38 43 -86 95
-105 116 -19 20 -63 68 -96 106 -34 37 -83 91 -108 118 -26 28 -71 77 -101
110 -29 33 -64 72 -77 86 -12 14 -61 67 -108 119 -47 51 -107 118 -135 148
-27 30 -61 67 -75 83 -14 15 -57 63 -97 106 -39 43 -81 89 -92 102 -11 13 -58
65 -105 115 -46 50 -99 108 -117 130 -19 21 -52 57 -74 80 -22 24 -71 78 -110
120 -88 99 -99 110 -160 177 -27 31 -86 95 -130 143 -44 49 -93 103 -110 120
-16 18 -55 61 -85 95 -30 35 -75 84 -100 110 -43 46 -178 194 -210 231 -8 10
-53 59 -100 110 -47 51 -94 103 -106 117 l-21 24 -34 -30z"/>
</g>
</svg>
