<svg xmlns="http://www.w3.org/2000/svg" width="22.969" height="14" viewBox="0 0 22.969 14">
  <metadata><?xpacket begin="﻿" id="W5M0MpCehiHzreSzNTczkc9d"?>
<x:xmpmeta xmlns:x="adobe:ns:meta/" x:xmptk="Adobe XMP Core 5.6-c142 79.160924, 2017/07/13-01:06:39        ">
   <rdf:RDF xmlns:rdf="http://www.w3.org/1999/02/22-rdf-syntax-ns#">
      <rdf:Description rdf:about=""/>
   </rdf:RDF>
</x:xmpmeta>
                                                                                                    
                                                                                                    
                                                                                                    
                                                                                                    
                                                                                                    
                                                                                                    
                                                                                                    
                                                                                                    
                                                                                                    
                                                                                                    
                                                                                                    
                                                                                                    
                                                                                                    
                                                                                                    
                                                                                                    
                                                                                                    
                                                                                                    
                                                                                                    
                                                                                                    
                                                                                                    
                           
<?xpacket end="w"?></metadata>
<defs>
    <style>
      .cls-1 {
        fill: #999;
        fill-rule: evenodd;
      }
    </style>
  </defs>
  <path id="behance" class="cls-1" d="M692,1544h6.662c2.7,0,4.52.93,4.52,3.5a3.006,3.006,0,0,1-1.924,2.87,3.386,3.386,0,0,1,2.6,3.5c0,2.79-2.439,3.99-5,3.99H692V1544Zm2.845,5.66h3.42a1.621,1.621,0,0,0,1.9-1.64c0-1.31-1.032-1.58-2.142-1.58h-3.182v3.22Zm0,5.85h3.6c1.23,0,2.3-.39,2.3-1.82,0-1.41-.911-1.97-2.24-1.97h-3.658v3.79Zm12.744-1.84c0.08,1.74.952,2.27,2.517,2.27,1.131,0,2.044-.2,2.222-0.82h2.478c-0.792,2.36-2.478,2.88-4.8,2.88a4.935,4.935,0,0,1-5.233-5.25,5.062,5.062,0,0,1,5.233-5.26c3.49,0,5.175,3.11,4.977,6.18h-7.395Zm4.58-1.48c-0.258-1.39-.873-2.64-2.241-2.64-1.784,0-2.3,1.87-2.339,2.64h4.58Zm1.173-5.44h-7.083v-1.4h7.083v1.4Z" transform="translate(-692 -1544)"/>
</svg>
