<svg xmlns="http://www.w3.org/2000/svg" width="15.187" height="15" viewBox="0 0 15.187 15">
  <metadata><?xpacket begin="﻿" id="W5M0MpCehiHzreSzNTczkc9d"?>
<x:xmpmeta xmlns:x="adobe:ns:meta/" x:xmptk="Adobe XMP Core 5.6-c142 79.160924, 2017/07/13-01:06:39        ">
   <rdf:RDF xmlns:rdf="http://www.w3.org/1999/02/22-rdf-syntax-ns#">
      <rdf:Description rdf:about=""/>
   </rdf:RDF>
</x:xmpmeta>
                                                                                                    
                                                                                                    
                                                                                                    
                                                                                                    
                                                                                                    
                                                                                                    
                                                                                                    
                                                                                                    
                                                                                                    
                                                                                                    
                                                                                                    
                                                                                                    
                                                                                                    
                                                                                                    
                                                                                                    
                                                                                                    
                                                                                                    
                                                                                                    
                                                                                                    
                                                                                                    
                           
<?xpacket end="w"?></metadata>
<defs>
    <style>
      .cls-1 {
        fill: #999;
        fill-rule: evenodd;
      }
    </style>
  </defs>
  <path id="instagram" class="cls-1" d="M747.48,1543H735.32a1.511,1.511,0,0,0-1.52,1.5v12a1.518,1.518,0,0,0,1.52,1.5h12.16a1.518,1.518,0,0,0,1.52-1.5v-12A1.511,1.511,0,0,0,747.48,1543Zm-6.08,4.5a3,3,0,1,1-3.04,3A3.029,3.029,0,0,1,741.4,1547.5Zm-5.7,9a0.358,0.358,0,0,1-.38-0.38v-6.37h1.6a2.487,2.487,0,0,0-.076.75,4.56,4.56,0,0,0,9.12,0,2.487,2.487,0,0,0-.076-0.75h1.6v6.37a0.358,0.358,0,0,1-.38.38H735.7Zm11.78-10.13a0.358,0.358,0,0,1-.38.38h-1.52a0.358,0.358,0,0,1-.38-0.38v-1.5a0.355,0.355,0,0,1,.38-0.37h1.52a0.355,0.355,0,0,1,.38.37v1.5Z" transform="translate(-733.813 -1543)"/>
</svg>
