<?xml version="1.0" encoding="utf-8"?>

<svg xmlns="http://www.w3.org/2000/svg" width="25" height="14" viewBox="0 0 22.969 14">
  <defs>
    <style>
      .cls-1 {
        fill: #999;
        fill-rule: evenodd;
      }
    </style>
  </defs>
  <symbol id="behance" class="cls-1" viewBox="0 0 64 64">
    <path class="cls-1" d="M692,1544h6.662c2.7,0,4.52.93,4.52,3.5a3.006,3.006,0,0,1-1.924,2.87,3.386,3.386,0,0,1,2.6,3.5c0,2.79-2.439,3.99-5,3.99H692V1544Zm2.845,5.66h3.42a1.621,1.621,0,0,0,1.9-1.64c0-1.31-1.032-1.58-2.142-1.58h-3.182v3.22Zm0,5.85h3.6c1.23,0,2.3-.39,2.3-1.82,0-1.41-.911-1.97-2.24-1.97h-3.658v3.79Zm12.744-1.84c0.08,1.74.952,2.27,2.517,2.27,1.131,0,2.044-.2,2.222-0.82h2.478c-0.792,2.36-2.478,2.88-4.8,2.88a4.935,4.935,0,0,1-5.233-5.25,5.062,5.062,0,0,1,5.233-5.26c3.49,0,5.175,3.11,4.977,6.18h-7.395Zm4.58-1.48c-0.258-1.39-.873-2.64-2.241-2.64-1.784,0-2.3,1.87-2.339,2.64h4.58Zm1.173-5.44h-7.083v-1.4h7.083v1.4Z" transform="translate(-692 -1544)"/>
  </symbol>
</svg>

<svg xmlns="http://www.w3.org/2000/svg" width="25" height="15" viewBox="0 0 8 15">
  <defs>
    <style>
      .cls-1 {
        fill: #999;
        fill-rule: evenodd;
      }
    </style>
  </defs>
  <symbol id="facebook" class="cls-1" viewBox="0 0 64 64">
    <path class="cls-1" d="M667.947,1545.85h2.063V1543h-2.424v0.01c-2.936.1-3.539,1.64-3.592,3.27h-0.006v1.43h-2v2.79h2v7.5H667v-7.5h2.469l0.475-2.79H667v-0.87A0.951,0.951,0,0,1,667.947,1545.85Z" transform="translate(-662 -1543)"/>
  </symbol>
</svg>

<svg version="1.1" id="Слой_1" xmlns="http://www.w3.org/2000/svg" xmlns:xlink="http://www.w3.org/1999/xlink" x="0px" y="0px"
	 viewBox="0 0 54 38" style="enable-background:new 0 0 54 38;" xml:space="preserve">
  <symbol id="e-mail" class="cls-1" viewBox="0 0 64 64">   
    <style type="text/css">
      .st0{fill:none;stroke:#999999;stroke-width:4;stroke-miterlimit:10;}
    </style>
    <g>
      <rect x="2" y="2" class="st0" width="25" height="17"/>
      <polyline class="st0" points="52,2 27,22 2,2 	"/>
    </g>
  </symbol>  
</svg>

<svg xmlns="http://www.w3.org/2000/svg" width="25" height="15" viewBox="0 0 15.187 15">
<defs>
    <style>
      .cls-1 {
        fill: #999;
        fill-rule: evenodd;
      }
    </style>
  </defs>
  <symbol id="instagram" class="cls-1" viewBox="0 0 64 64">
    <path class="cls-1" d="M747.48,1543H735.32a1.511,1.511,0,0,0-1.52,1.5v12a1.518,1.518,0,0,0,1.52,1.5h12.16a1.518,1.518,0,0,0,1.52-1.5v-12A1.511,1.511,0,0,0,747.48,1543Zm-6.08,4.5a3,3,0,1,1-3.04,3A3.029,3.029,0,0,1,741.4,1547.5Zm-5.7,9a0.358,0.358,0,0,1-.38-0.38v-6.37h1.6a2.487,2.487,0,0,0-.076.75,4.56,4.56,0,0,0,9.12,0,2.487,2.487,0,0,0-.076-0.75h1.6v6.37a0.358,0.358,0,0,1-.38.38H735.7Zm11.78-10.13a0.358,0.358,0,0,1-.38.38h-1.52a0.358,0.358,0,0,1-.38-0.38v-1.5a0.355,0.355,0,0,1,.38-0.37h1.52a0.355,0.355,0,0,1,.38.37v1.5Z" transform="translate(-733.813 -1543)"/>
  </symbol>
</svg>

<svg version="1.1" xmlns="http://www.w3.org/2000/svg" xmlns:xlink="http://www.w3.org/1999/xlink" x="0px" y="0px"
	 viewBox="0 0 70 31.1" style="enable-background:new 0 0 70 31.1;" xml:space="preserve">
  <symbol id="logo" class="cls-1" viewBox="0 0 64 64">
    <style type="text/css">
      .st0{fill:#FFFFFF;}
      .st1{fill:#BBCE0F;}
      .st2{fill:#F0F0EF;}
      .st3{fill:#BBBBBA;}
      .st4{fill:#6E6E6E;}
      .st5{fill:none;stroke:#1D1D1B;stroke-width:0.25;stroke-miterlimit:10;}
      .st6{clip-path:url(#SVGID_26_);}
      .st7{clip-path:url(#SVGID_40_);}
      .st8{clip-path:url(#SVGID_44_);}
      .st9{clip-path:url(#SVGID_48_);}
      .st10{fill:none;stroke:#1D1D1B;stroke-miterlimit:10;}
      .st11{fill:#1D1D1B;}
      .st12{fill:none;stroke:#000000;stroke-width:0.25;stroke-miterlimit:10;}
    </style>
    <path class="st1" d="M4.1,22.7c1-1.3,1.6-2.5,1.6-3.7c0-1.2-0.5-2.3-1.6-3.5c1.1-1.2,1.6-2.3,1.6-3.5c0-1.2-0.5-2.4-1.6-3.7L3.6,7.6
      C3.1,7,2.8,6.4,2.8,5.8c0.1-0.6,0.3-1,0.4-1.4C3.4,4,3.7,3.7,4.1,3.2l1.2-1.2L3.5,0C3.4,0.1,3.1,0.3,2.6,0.7c-0.5,0.4-0.8,0.7-1.1,1
      C1.3,2,1.1,2.3,0.9,2.6C0.4,3.6,0.1,4.5,0,5.5c0.1,1.2,0.5,2.3,1.3,3.4L2,9.7c0.6,0.8,0.9,1.6,0.9,2.5c0,0.4-0.2,0.8-0.4,1.1
      s-0.6,0.7-1.1,1.1l-1.2,1.2l0,0l0,0l1.2,1.2c0.5,0.5,0.9,0.9,1.1,1.1s0.3,0.6,0.4,1.1c0,0.9-0.3,1.7-0.9,2.5l-0.6,0.8
      c-0.8,1-1.3,2.2-1.3,3.4c0.1,1,0.4,2,0.9,2.9c0.2,0.3,0.4,0.7,0.7,0.9c0.3,0.3,0.6,0.6,1.1,1c0.5,0.4,0.7,0.6,0.8,0.7L5.3,29
      l-1.2-1.2c-0.4-0.4-0.7-0.8-0.9-1.2c-0.2-0.4-0.3-0.8-0.4-1.4c0.1-0.7,0.4-1.3,0.8-1.9L4.1,22.7z"/>
    <path class="st11" d="M13.8,4c0-1.5,1.2-2.8,3.2-2.8c1.3,0,2.3,0.4,2.9,1.1l-1,1.4c-0.5-0.5-1-0.8-1.8-0.8c-0.9,0-1.4,0.5-1.4,1.1
      c0,2.1,4.7,1.5,4.7,4.9c0,1.7-1.5,2.9-3.4,2.9c-1.3,0-2.9-0.6-3.4-1.6l1-1.2c0.6,0.8,1.6,1.2,2.4,1.2c0.9,0,1.5-0.4,1.5-1.2
      C18.5,6.9,13.8,7.4,13.8,4z"/>
    <path class="st11" d="M25.2,4.8c2.2,0,3.6,1.5,3.6,3.5s-1.4,3.5-3.6,3.5s-3.6-1.5-3.6-3.5S23,4.8,25.2,4.8z M25.2,10.2
      c1,0,1.8-0.8,1.8-1.9c0-1.1-0.8-1.9-1.8-1.9c-1,0-1.8,0.7-1.8,1.9C23.4,9.4,24.1,10.2,25.2,10.2z"/>
    <path class="st11" d="M30.2,3.9c0-1.8,0.9-2.8,2.4-2.8c0.8,0,1.5,0.3,1.9,0.6l-0.6,1.3c-0.2-0.2-0.6-0.3-1-0.3c-0.6,0-1,0.4-1,1.3V5
      h3.6v1.6h-3.6v5h-1.7V3.9z"/>
    <path class="st11" d="M39.1,11.6c-1,2.4-1.6,2.9-2.6,2.9c-0.6,0-1-0.2-1.4-0.5l0.5-1.3c0.2,0.1,0.4,0.2,0.7,0.2c0.4,0,0.7-0.3,1-1
      l0.1-0.4L34.4,5h2L38,8.6c0.1,0.3,0.2,0.6,0.3,1c0.1-0.3,0.1-0.6,0.2-1L39.7,5h1.9L39.1,11.6z"/>
    <path class="st11" d="M42.7,5.5c0.6-0.3,1.5-0.6,2.3-0.6c2,0,2.7,1,2.7,2.8v4h-1.5v-0.8c-0.4,0.5-1.1,0.9-2,0.9
      c-1.2,0-2.1-0.8-2.1-2c0-1.5,1.1-2.1,2.4-2.1c0.6,0,1.2,0.2,1.5,0.4c0-1.1-0.3-1.7-1.2-1.7c-0.8,0-1.3,0.2-1.7,0.5L42.7,5.5z
      M46.1,9.7V9c-0.3-0.2-0.7-0.3-1.2-0.3c-0.6,0-1.1,0.3-1.1,0.8c0,0.5,0.4,0.8,0.9,0.8C45.5,10.3,45.9,10,46.1,9.7z"/>
    <path class="st11" d="M13.8,21.7c0-1.5,1.2-2.8,3.2-2.8c1.3,0,2.3,0.4,2.9,1.1l-1,1.4c-0.5-0.5-1-0.8-1.8-0.8
      c-0.9,0-1.4,0.5-1.4,1.1c0,2.1,4.7,1.5,4.7,4.9c0,1.7-1.5,2.9-3.4,2.9c-1.3,0-2.9-0.6-3.4-1.6l1-1.2c0.6,0.8,1.6,1.2,2.4,1.2
      c0.9,0,1.5-0.4,1.5-1.2C18.5,24.5,13.8,25,13.8,21.7z"/>
    <path class="st11" d="M25.2,22.5c2.2,0,3.6,1.5,3.6,3.5s-1.4,3.5-3.6,3.5S21.6,28,21.6,26S23,22.5,25.2,22.5z M25.2,27.9
      c1,0,1.8-0.8,1.8-1.9c0-1.1-0.8-1.9-1.8-1.9c-1,0-1.8,0.7-1.8,1.9C23.4,27.1,24.1,27.9,25.2,27.9z"/>
    <path class="st11" d="M30.2,19h1.7v10.3h-1.7V19z M33.9,25.7l2.8,3.6h-2.2l-2.6-3.5l2.4-3.2h2.1L33.9,25.7z"/>
    <path class="st11" d="M40.6,22.5c2.2,0,3.6,1.5,3.6,3.5s-1.4,3.5-3.6,3.5S36.9,28,36.9,26S38.4,22.5,40.6,22.5z M40.6,27.9
      c1,0,1.8-0.8,1.8-1.9c0-1.1-0.8-1.9-1.8-1.9c-1,0-1.8,0.7-1.8,1.9C38.8,27.1,39.5,27.9,40.6,27.9z"/>
    <path class="st11" d="M45.6,19h1.7v7.8c0,0.8,0.2,1.1,0.6,1.1c0.3,0,0.5-0.1,0.7-0.3l0.4,1.3c-0.4,0.3-1,0.6-1.8,0.6
      c-1,0-1.6-0.6-1.6-2V19z"/>
    <path class="st11" d="M53,22.5c2.2,0,3.6,1.5,3.6,3.5s-1.4, 3.5-3.6,3.5S49.4,28,49.4,26S50.8,22.5,53,22.5z M53,27.9
      c1,0,1.8-0.8,1.8-1.9c0-1.1-0.8-1.9-1.8-1.9c-1,0-1.8,0.7-1.8,1.9C51.2,27.1,52,27.9,53,27.9z"/>
    <path class="st11" d="M61.2,29.3H60l-3-6.7h2l1.2,2.8c0.2,0.4,0.4,1,0.5,1.5c0.1-0.5,0.3-1.1,0.5-1.5l1.1-2.8h1.8L61.2,29.3z"/>
    <path class="st11" d="M65,23.1c0.6-0.3,1.5-0.6,2.3-0.6c2,0,2.7,1,2.7,2.8v4h-1.5v-0.8c-0.4,0.5-1.1,0.9-2,0.9c-1.2,0-2.1-0.8-2.1-2
    c0-1.5,1.1-2.1,2.4-2.1c0.6,0,1.2,0.2,1.5,0.4c0-1.1-0.3-1.7-1.2-1.7c-0.8,0-1.3,0.2-1.7,0.5L65,23.1z M68.4,27.4v-0.7
    c-0.3-0.2-0.7-0.3-1.2-0.3c-0.6,0-1.1,0.3-1.1,0.8c0,0.5,0.4,0.8,0.9,0.8C67.9,28,68.2,27.6,68.4,27.4z"/>
  </symbol>
</svg>